<svg enable-background="new 0 0 52 52" height="52" viewBox="0 0 52 52" width="52" xmlns="http://www.w3.org/2000/svg"><g fill="#fff"><path d="m20 37.5c0-.8-.7-1.5-1.5-1.5h-15c-.8 0-1.5.7-1.5 1.5v11c0 .8.7 1.5 1.5 1.5h15c.8 0 1.5-.7 1.5-1.5z"/><path d="m8.1 22h-4.9c-1 0-1.5.9-.9 1.4l8 8.3c.4.3 1 .3 1.4 0l8-8.3c.6-.6.1-1.4-.9-1.4h-4.7c0-5 4.9-10 9.9-10v-6c-9 0-15.9 7-15.9 16z"/><path d="m41.8 20.3c-.4-.3-1-.3-1.4 0l-8 8.3c-.6.6-.1 1.4.9 1.4h4.8c0 6-4.1 10-10.1 10v6c9 0 16.1-7 16.1-16h4.9c1 0 1.5-.9.9-1.4z"/><path d="m50 3.5c0-.8-.7-1.5-1.5-1.5h-15c-.8 0-1.5.7-1.5 1.5v11c0 .8.7 1.5 1.5 1.5h15c.8 0 1.5-.7 1.5-1.5z"/></g></svg>