<svg enable-background="new 0 0 52 52" height="52" viewBox="0 0 52 52" width="52" xmlns="http://www.w3.org/2000/svg"><g fill="#fff"><path d="m46 8h-11.1s.1.7.1 1c0 3.9-3.1 7-7 7h-6c-3.9 0-7-3.1-7-7 0-.3 0-1 .1-1h-9.1c-2.2 0-4 1.8-4 4v30c0 2.2 1.8 4 4 4h40c2.2 0 4-1.8 4-4v-30c0-2.2-1.8-4-4-4zm-24.3 30h-5.7-5.7c-1.3 0-2.3-1.2-2.3-2.5 0-2 2.1-3.1 4.3-4 1.5-.6 1.7-1.2 1.7-1.9 0-.6-.4-1.2-.9-1.7-.9-.8-1.4-2-1.4-3.3 0-2.5 1.5-4.6 4.2-4.6s4.2 2.1 4.2 4.6c0 1.3-.5 2.5-1.4 3.3-.5.5-.9 1.1-.9 1.7s.2 1.2 1.7 1.9c2.2.9 4.3 2 4.3 4 .2 1.3-.8 2.5-2.1 2.5zm22.3-4c0 .6-.4 1-1 1h-14c-.6 0-1-.4-1-1v-2c0-.6.4-1 1-1h14c.6 0 1 .4 1 1zm2-8c0 .6-.4 1-1 1h-16c-.6 0-1-.4-1-1v-2c0-.6.4-1 1-1h16c.6 0 1 .4 1 1z"/><path d="m22 12h6c1.7 0 3-1.3 3-3s-1.3-3-3-3h-6c-1.7 0-3 1.3-3 3s1.3 3 3 3z"/></g></svg>